<?xml version="1.0" encoding="UTF-8"?>
<svg xmlns="http://www.w3.org/2000/svg" xmlns:xlink="http://www.w3.org/1999/xlink" width="100px" height="100px" viewBox="0 0 100 100" version="1.1">
<g id="surface1">
<path style=" stroke:none;fill-rule:nonzero;fill:rgb(100%,100%,100%);fill-opacity:1;" d="M 98.667969 50 C 98.667969 76.878906 76.878906 98.667969 50 98.667969 C 23.121094 98.667969 1.332031 76.878906 1.332031 50 C 1.332031 23.121094 23.121094 1.332031 50 1.332031 C 76.878906 1.332031 98.667969 23.121094 98.667969 50 Z M 98.667969 50 "/>
<path style=" stroke:none;fill-rule:nonzero;fill:rgb(0%,0%,0%);fill-opacity:1;" d="M 50 2.667969 C 76.101562 2.667969 97.332031 23.898438 97.332031 50 C 97.332031 76.101562 76.101562 97.332031 50 97.332031 C 23.898438 97.332031 2.667969 76.101562 2.667969 50 C 2.667969 23.898438 23.898438 2.667969 50 2.667969 M 50 0 C 22.386719 0 0 22.386719 0 50 C 0 77.613281 22.386719 100 50 100 C 77.613281 100 100 77.613281 100 50 C 100 22.386719 77.613281 0 50 0 Z M 50 0 "/>
<path style="fill-rule:nonzero;fill:rgb(0%,40%,100%);fill-opacity:1;stroke-width:1;stroke-linecap:butt;stroke-linejoin:miter;stroke:rgb(100%,100%,100%);stroke-opacity:1;stroke-miterlimit:4;" d="M 59.982422 64.259766 L 59.982422 63.427734 L 44.941406 63.427734 L 51.632812 56.742188 L 70.21875 38.150391 L 75.357422 33.011719 L 80.501953 38.150391 L 99.087891 56.742188 L 105.779297 63.427734 L 90.738281 63.427734 L 90.738281 101.267578 L 59.970703 101.267578 L 59.970703 64.259766 Z M 75.949219 42.697266 L 75.357422 42.111328 L 61.910156 55.558594 L 60.492188 56.982422 L 66.421875 56.982422 L 66.421875 94.822266 L 84.298828 94.822266 L 84.298828 56.982422 L 90.228516 56.982422 L 88.810547 55.558594 Z M 60.919922 111.978516 C 61.517578 111.380859 62.337891 111.041016 63.199219 111.041016 L 87.521484 111.041016 C 88.371094 111.041016 89.191406 111.380859 89.800781 111.978516 C 90.398438 112.582031 90.738281 113.402344 90.738281 114.257812 C 90.738281 115.119141 90.398438 115.927734 89.800781 116.537109 C 89.197266 117.140625 88.382812 117.480469 87.521484 117.480469 L 63.199219 117.480469 C 62.349609 117.480469 61.529297 117.140625 60.919922 116.537109 C 60.322266 115.939453 59.982422 115.119141 59.982422 114.257812 C 59.982422 113.402344 60.322266 112.587891 60.919922 111.978516 Z M 60.919922 111.978516 " transform="matrix(0.666667,0,0,0.666667,0,0)"/>
</g>
</svg>
