<?xml version="1.0" encoding="UTF-8"?>
<svg xmlns="http://www.w3.org/2000/svg" xmlns:xlink="http://www.w3.org/1999/xlink" width="100px" height="100px" viewBox="0 0 100 100" version="1.1">
<g id="surface1">
<path style=" stroke:none;fill-rule:nonzero;fill:rgb(100%,100%,100%);fill-opacity:1;" d="M 98.667969 50 C 98.667969 76.878906 76.878906 98.667969 50 98.667969 C 23.121094 98.667969 1.332031 76.878906 1.332031 50 C 1.332031 23.121094 23.121094 1.332031 50 1.332031 C 76.878906 1.332031 98.667969 23.121094 98.667969 50 Z M 98.667969 50 "/>
<path style=" stroke:none;fill-rule:nonzero;fill:rgb(0%,0%,0%);fill-opacity:1;" d="M 50 2.667969 C 76.101562 2.667969 97.332031 23.898438 97.332031 50 C 97.332031 76.101562 76.101562 97.332031 50 97.332031 C 23.898438 97.332031 2.667969 76.101562 2.667969 50 C 2.667969 23.898438 23.898438 2.667969 50 2.667969 M 50 0 C 22.386719 0 0 22.386719 0 50 C 0 77.613281 22.386719 100 50 100 C 77.613281 100 100 77.613281 100 50 C 100 22.386719 77.613281 0 50 0 Z M 50 0 "/>
<path style="fill-rule:nonzero;fill:rgb(0%,40%,100%);fill-opacity:1;stroke-width:1;stroke-linecap:butt;stroke-linejoin:miter;stroke:rgb(0%,40%,100%);stroke-opacity:1;stroke-miterlimit:4;" d="M 48.251953 57.521484 C 49.980469 55.787109 52.341797 54.808594 54.791016 54.808594 L 95.291016 54.808594 C 96.498047 54.808594 97.710938 55.048828 98.830078 55.511719 C 99.949219 55.96875 100.96875 56.660156 101.830078 57.521484 C 102.691406 58.382812 103.371094 59.402344 103.839844 60.521484 C 104.302734 61.640625 104.537109 62.847656 104.537109 64.060547 L 104.537109 67.3125 L 45.539062 67.3125 L 45.539062 64.060547 C 45.539062 61.611328 46.511719 59.25 48.251953 57.521484 Z M 45.539062 86.560547 L 45.539062 72.808594 L 104.537109 72.808594 L 104.537109 86.560547 C 104.537109 87.767578 104.302734 88.980469 103.839844 90.099609 C 103.382812 91.21875 102.691406 92.238281 101.830078 93.099609 C 100.96875 93.960938 99.949219 94.640625 98.830078 95.109375 C 97.710938 95.572266 96.498047 95.8125 95.291016 95.8125 L 54.791016 95.8125 C 52.341797 95.8125 49.980469 94.839844 48.251953 93.099609 C 46.517578 91.371094 45.539062 89.009766 45.539062 86.560547 Z M 93.791016 82.3125 L 86.291016 82.3125 C 85.558594 82.3125 84.861328 82.599609 84.351562 83.121094 C 83.830078 83.642578 83.537109 84.339844 83.537109 85.060547 C 83.537109 85.78125 83.830078 86.490234 84.351562 87 C 84.867188 87.521484 85.570312 87.808594 86.291016 87.808594 L 93.791016 87.808594 C 94.517578 87.808594 95.220703 87.521484 95.730469 87 C 96.251953 86.478516 96.539062 85.78125 96.539062 85.060547 C 96.539062 84.339844 96.251953 83.630859 95.730469 83.121094 C 95.208984 82.599609 94.511719 82.3125 93.791016 82.3125 Z M 93.791016 82.3125 " transform="matrix(0.666667,0,0,0.666667,0,0)"/>
</g>
</svg>
