<?xml version="1.0" encoding="UTF-8"?>
<svg id="_Слой_1" data-name="Слой 1" xmlns="http://www.w3.org/2000/svg" viewBox="0 0 98.75 29.78">
  <defs>
    <style>
      .cls-1 {
        fill: #fff;
      }
    </style>
  </defs>
  <g>
    <path class="cls-1" d="m10.73,7.74c0,.59-.1,1.14-.31,1.64-.21.5-.49.93-.85,1.29-.36.36-.79.64-1.29.85s-1.04.31-1.62.31H1.9c-.13,0-.24-.02-.35-.07-.11-.04-.2-.11-.28-.19s-.14-.17-.19-.28c-.05-.11-.07-.23-.07-.35V2.97c0-.12.02-.24.07-.35.04-.11.11-.2.19-.28.08-.08.17-.15.28-.19.11-.04.23-.07.35-.07h4.76c.58,0,1.12.1,1.62.31s.93.49,1.29.84c.36.36.65.79.85,1.29.21.5.31,1.04.31,1.63v1.59Zm-1.76-1.59c0-.34-.06-.66-.17-.94-.11-.29-.27-.53-.47-.73s-.45-.36-.73-.47-.6-.17-.94-.17h-3.89v6.2h3.89c.34,0,.66-.06.94-.17s.53-.27.73-.47c.2-.2.36-.44.47-.73.11-.28.17-.6.17-.95v-1.59Z"/>
    <path class="cls-1" d="m18.6,6.24h-3.97c-.24,0-.42.06-.54.18-.12.12-.18.29-.18.53v4.87h-1.76v-4.87c0-.3.04-.57.12-.81.08-.24.18-.45.31-.63.13-.18.28-.34.44-.47s.34-.23.53-.32c.18-.08.37-.14.56-.18.19-.04.36-.06.53-.06h3.98v1.76Z"/>
    <path class="cls-1" d="m27.66,9.34c0,.3-.04.58-.12.82-.08.24-.18.45-.31.64-.13.18-.27.34-.44.47-.17.13-.34.23-.53.32-.18.08-.37.14-.56.18-.19.04-.37.06-.53.06h-3.18c-.24,0-.51-.04-.8-.13s-.56-.23-.8-.42c-.25-.2-.45-.45-.62-.77s-.25-.7-.25-1.16v-2.39c0-.45.08-.84.25-1.15s.37-.57.62-.77c.25-.2.51-.34.8-.42s.56-.13.8-.13h3.18c.45,0,.84.08,1.15.24.32.16.57.37.77.61.19.25.34.51.42.8.09.29.13.56.13.81v2.39Zm-1.76-2.38c0-.24-.06-.43-.18-.54s-.3-.18-.53-.18h-3.17c-.24,0-.41.06-.54.18-.12.12-.18.29-.18.53v2.39c0,.23.06.41.18.53.12.12.3.18.54.18h3.17c.24,0,.42-.06.54-.18.12-.12.18-.3.18-.53v-2.38Z"/>
    <path class="cls-1" d="m37.21,11.81h-1.76v-4.07c0-.23-.04-.44-.12-.62s-.19-.34-.32-.47c-.14-.13-.3-.23-.48-.3s-.38-.11-.59-.11h-3.09v5.57h-1.76v-6.46c0-.12.02-.24.07-.34.05-.11.11-.2.19-.28.08-.08.18-.14.28-.19.11-.04.22-.07.35-.07h3.98c.22,0,.46.02.7.07s.49.13.73.24c.24.11.47.25.69.42.22.17.41.38.58.62.17.24.3.52.4.84.1.32.15.67.15,1.07v4.07Z"/>
    <path class="cls-1" d="m46.56,6.91c0,.24-.04.51-.13.79-.09.28-.23.55-.42.79-.19.24-.44.44-.75.61-.31.16-.69.24-1.13.24h-3.18v-1.68h3.18c.24,0,.42-.07.56-.22s.2-.33.2-.55c0-.23-.07-.41-.22-.54-.15-.13-.32-.2-.53-.2h-3.18c-.24,0-.43.07-.56.22-.13.15-.2.33-.2.55v2.46c0,.24.07.42.22.55.15.13.33.2.55.2h3.17v1.68h-3.18c-.24,0-.51-.04-.79-.13s-.55-.23-.79-.42c-.24-.19-.44-.44-.61-.75-.16-.31-.24-.69-.24-1.13v-2.48c0-.24.04-.51.13-.79s.23-.54.42-.79c.19-.24.44-.44.75-.61.31-.16.69-.24,1.13-.24h3.18c.24,0,.51.04.79.13s.54.23.79.42c.24.19.44.44.61.75.16.31.24.69.24,1.13Z"/>
    <path class="cls-1" d="m62.01,7.74c0,.59-.1,1.14-.31,1.64-.21.5-.49.93-.85,1.29-.36.36-.79.64-1.29.85-.5.2-1.04.31-1.62.31h-4.76c-.13,0-.25-.02-.35-.07-.11-.04-.2-.11-.28-.19s-.14-.17-.19-.28c-.05-.11-.07-.23-.07-.35V2.97c0-.12.02-.24.07-.35.04-.11.11-.2.19-.28.08-.08.17-.15.28-.19.11-.04.23-.07.35-.07h4.76c.58,0,1.12.1,1.62.31.5.2.93.49,1.29.84.36.36.65.79.85,1.29.21.5.31,1.04.31,1.63v1.59Zm-1.76-1.59c0-.34-.06-.66-.17-.94-.11-.29-.27-.53-.47-.73-.2-.2-.45-.36-.73-.47-.28-.11-.6-.17-.94-.17h-3.89v6.2h3.89c.34,0,.66-.06.94-.17.28-.11.53-.27.73-.47.2-.2.36-.44.47-.73.11-.28.17-.6.17-.95v-1.59Z"/>
    <path class="cls-1" d="m65.25,2.97h-1.76v-1.59h1.76v1.59Zm0,8.84h-1.76v-7.34h1.76v7.34Z"/>
    <path class="cls-1" d="m73.28,6.24h-3.97c-.24,0-.42.06-.54.18-.12.12-.18.29-.18.53v4.87h-1.76v-4.87c0-.3.04-.57.12-.81s.18-.45.31-.63c.13-.18.28-.34.44-.47.17-.13.34-.23.53-.32.18-.08.37-.14.56-.18.19-.04.36-.06.53-.06h3.98v1.76Z"/>
    <path class="cls-1" d="m82.25,6.91c0,.24-.04.51-.13.79-.09.28-.23.55-.42.79-.19.24-.44.44-.75.61-.31.16-.69.24-1.13.24h-3.18v-1.68h3.18c.24,0,.43-.07.56-.22s.2-.33.2-.55c0-.23-.07-.41-.22-.54-.15-.13-.33-.2-.53-.2h-3.18c-.24,0-.42.07-.56.22-.13.15-.2.33-.2.55v2.46c0,.24.07.42.22.55.15.13.33.2.55.2h3.17v1.68h-3.18c-.24,0-.51-.04-.79-.13-.28-.09-.54-.23-.79-.42-.24-.19-.44-.44-.61-.75-.16-.31-.24-.69-.24-1.13v-2.48c0-.24.04-.51.13-.79s.22-.54.42-.79c.19-.24.44-.44.75-.61.31-.16.69-.24,1.13-.24h3.18c.24,0,.51.04.79.13.28.09.54.23.79.42s.44.44.61.75c.16.31.24.69.24,1.13Z"/>
    <path class="cls-1" d="m90.45,11.81h-4.78c-.24,0-.51-.04-.8-.13-.29-.09-.56-.23-.8-.42-.25-.2-.45-.45-.62-.77-.17-.31-.25-.7-.25-1.16v-2.39c0-.17.02-.34.06-.53s.1-.37.18-.55.19-.36.32-.53.29-.31.47-.44c.18-.13.39-.23.63-.31.24-.08.51-.12.81-.12h4.78v1.76h-4.78c-.23,0-.41.06-.53.18-.12.12-.18.3-.18.54v2.38c0,.23.06.41.18.53.12.12.3.18.54.18h4.77v1.76Z"/>
    <path class="cls-1" d="m98.5,6.24h-3.08v5.57h-1.79v-5.57h-2.29v-1.76h2.29v-2.4h1.79v2.4h3.08v1.76Z"/>
    <path class="cls-1" d="m32.53,22.95c0,.35-.04.66-.13.94-.09.28-.21.52-.35.74-.15.21-.31.39-.51.54-.19.15-.4.27-.6.37s-.42.17-.63.21c-.22.04-.42.07-.61.07h-6.81v-1.76h6.81c.34,0,.6-.1.79-.3.19-.2.28-.47.28-.8,0-.16-.02-.31-.07-.45-.05-.14-.12-.25-.21-.35s-.21-.18-.34-.23c-.13-.05-.28-.08-.44-.08h-4.06c-.28,0-.59-.05-.92-.15s-.64-.27-.92-.49-.52-.52-.71-.89c-.19-.37-.28-.81-.28-1.34s.09-.98.28-1.34c.19-.36.42-.66.71-.89s.59-.39.92-.5c.33-.1.64-.15.92-.15h6.01v1.76h-6.01c-.33,0-.6.1-.78.31s-.28.47-.28.81.09.61.28.8.45.29.78.29h4.07c.19,0,.39.03.6.08.21.05.42.12.63.22s.41.23.6.38c.19.15.36.33.51.55.15.21.26.46.35.73.09.28.13.59.13.94Z"/>
    <path class="cls-1" d="m42.71,17.85h-3.89v7.97h-1.76v-7.97h-3.9v-1.76h9.55v1.76Z"/>
    <path class="cls-1" d="m54.13,21.88c0,.59-.1,1.14-.31,1.63-.2.5-.49.93-.85,1.29-.36.36-.79.64-1.29.84-.5.2-1.04.3-1.62.3h-2.39c-.58,0-1.12-.1-1.62-.3s-.93-.48-1.29-.84c-.36-.36-.65-.79-.85-1.29-.21-.5-.31-1.04-.31-1.63v-1.86c0-.59.1-1.13.31-1.63.21-.5.49-.93.85-1.29.36-.36.79-.64,1.29-.84s1.04-.31,1.62-.31h2.39c.58,0,1.12.1,1.62.31.49.2.92.49,1.29.84.36.36.64.79.85,1.29.21.5.31,1.04.31,1.63v1.86Zm-1.77-1.86c0-.35-.05-.66-.17-.95s-.27-.52-.47-.73c-.2-.2-.45-.36-.73-.47-.28-.11-.59-.17-.93-.17h-2.39c-.34,0-.66.06-.94.17s-.53.27-.73.47c-.2.2-.36.44-.47.73s-.17.6-.17.95v1.86c0,.35.06.66.17.95.11.28.27.53.47.73s.45.36.73.47c.28.11.6.17.94.17h2.38c.34,0,.66-.05.94-.17.28-.11.53-.27.73-.47s.36-.44.47-.73c.11-.28.17-.6.17-.95v-1.86Z"/>
    <path class="cls-1" d="m65.52,19.35c0,.4-.05.76-.15,1.08-.1.32-.23.6-.4.84-.17.24-.37.45-.59.62s-.45.31-.7.42c-.24.11-.49.19-.73.24-.25.05-.48.07-.7.07l3.68,3.18h-2.73l-3.68-3.18h-1.27v-1.76h3.99c.22-.02.42-.06.61-.14.18-.07.34-.18.48-.3.13-.13.24-.28.31-.46s.11-.38.11-.61v-1.11c0-.1-.01-.18-.04-.23-.03-.05-.06-.09-.1-.12-.04-.02-.08-.04-.12-.04s-.08,0-.12,0h-5.82v7.97h-1.76v-8.84c0-.12.02-.24.07-.35.04-.11.11-.2.19-.28.08-.08.17-.15.28-.19.11-.04.23-.07.35-.07h6.7c.39,0,.73.07,1,.21s.49.32.66.54c.17.21.29.45.37.7.07.25.11.48.11.7v1.13Z"/>
    <path class="cls-1" d="m76,25.81h-6.37c-.24,0-.51-.04-.8-.13-.29-.09-.56-.23-.8-.42-.25-.2-.45-.45-.62-.77s-.25-.7-.25-1.16v-6.37c0-.12.02-.24.07-.35.04-.11.11-.2.19-.28.08-.08.17-.15.28-.19.11-.04.23-.07.35-.07h7.95v1.76h-7.07v5.49c0,.23.06.41.18.53s.3.18.54.18h6.35v1.76Zm-.79-3.98h-5.57v-1.78h5.57v1.78Z"/>
  </g>
  <g>
    <path class="cls-1" d="m19.88,22.09h0c-1.08-.27-1.88-1.01-2.15-1.81-1.49-4.3-8.95-2.88-13.86-6.24,1.71,5.52,7.83,3.83,12.19,5.64-2.61-.37-6.37.89-9.63-.15,2.44,3.84,6.66,1.21,10.36,1.42-2.07.35-4.41,2.22-7.17,2,3.17,2.89,5.41-.23,8.2-.97-1.31.74-2.33,2.7-4.31,3.09,2.99,1.63,3.62-.92,5.08-2.23-.12.25-.15.54-.09.83.16.7.85,1.14,1.55.98.7-.16,1.14-.85.98-1.55-.13-.57-.61-.96-1.16-1.01Z"/>
    <path class="cls-1" d="m94.82,14.91c-4.91,3.36-12.37,1.94-13.86,6.24-.28.8-1.07,1.55-2.15,1.81h0c-.55.05-1.03.44-1.16,1.01-.16.7.28,1.39.98,1.55.7.16,1.39-.28,1.55-.98.07-.29.03-.58-.09-.83,1.46,1.31,2.1,3.86,5.08,2.23-1.98-.38-3.01-2.35-4.31-3.09,2.79.74,5.03,3.86,8.2.97-2.76.21-5.1-1.65-7.17-2,3.69-.22,7.92,2.42,10.36-1.42-3.26,1.04-7.02-.22-9.63.15,4.37-1.81,10.48-.11,12.19-5.64Z"/>
  </g>
</svg>