<?xml version="1.0" encoding="UTF-8"?>
<svg xmlns="http://www.w3.org/2000/svg" xmlns:xlink="http://www.w3.org/1999/xlink" width="100px" height="100px" viewBox="0 0 100 100" version="1.1">
<g id="surface1">
<path style=" stroke:none;fill-rule:evenodd;fill:rgb(0%,40%,100%);fill-opacity:1;" d="M 18.007812 34.21875 L 24.941406 34.21875 L 24.941406 33.132812 C 24.921875 32.554688 25.375 32.066406 25.953125 32.046875 L 25.992188 32.046875 C 26.574219 32.046875 27.039062 32.519531 27.046875 33.101562 L 27.046875 34.226562 L 34 34.226562 C 34.773438 34.238281 35.394531 34.875 35.398438 35.640625 C 35.398438 36.414062 34.773438 37.054688 34 37.066406 L 27.046875 37.066406 L 27.046875 38.945312 C 27.691406 39.027344 28.191406 39.578125 28.199219 40.234375 L 28.199219 43.21875 L 39.847656 43.21875 L 39.847656 40.585938 C 39.847656 39.867188 40.433594 39.292969 41.152344 39.292969 L 58.921875 39.292969 C 59.640625 39.292969 60.21875 39.875 60.21875 40.585938 L 60.21875 43.21875 L 71.867188 43.21875 L 71.867188 40.234375 C 71.867188 39.574219 72.359375 39.019531 73.019531 38.945312 L 73.019531 37.066406 L 66.085938 37.066406 C 65.300781 37.066406 64.667969 36.425781 64.660156 35.640625 C 64.660156 34.851562 65.308594 34.226562 66.085938 34.226562 L 73.019531 34.226562 L 73.019531 33.140625 C 73 32.554688 73.460938 32.066406 74.039062 32.058594 L 74.066406 32.058594 C 74.648438 32.058594 75.121094 32.527344 75.121094 33.113281 L 75.121094 34.238281 L 82.054688 34.238281 C 82.839844 34.238281 83.472656 34.878906 83.480469 35.667969 C 83.480469 36.453125 82.839844 37.085938 82.054688 37.09375 L 75.121094 37.09375 L 75.121094 38.972656 C 75.773438 39.054688 76.265625 39.605469 76.273438 40.261719 L 76.273438 49.074219 C 76.273438 49.792969 75.691406 50.375 74.972656 50.375 L 73.171875 50.375 C 72.453125 50.375 71.878906 49.785156 71.875 49.074219 L 71.875 47.292969 L 59.246094 47.292969 C 59.019531 47.519531 58.820312 47.746094 58.625 47.972656 C 58.433594 48.191406 58.199219 48.519531 58.019531 48.761719 C 58.253906 48.832031 58.480469 48.90625 58.707031 48.988281 C 65.964844 51.507812 71.648438 57.292969 71.648438 66.351562 C 71.648438 67.441406 70.761719 68.320312 69.671875 68.320312 C 68.585938 68.320312 67.707031 67.441406 67.707031 66.351562 C 67.707031 59.265625 63.199219 54.726562 57.421875 52.738281 C 57.113281 52.625 56.792969 52.535156 56.480469 52.441406 C 56.308594 53.234375 56.1875 54.066406 56.054688 55.011719 C 56 55.964844 55.238281 56.734375 54.285156 56.78125 L 51.734375 56.78125 L 51.734375 59.464844 L 54.375 59.464844 C 55.113281 59.464844 55.707031 60.066406 55.707031 60.800781 L 55.707031 66.261719 C 55.707031 66.992188 55.113281 67.585938 54.375 67.59375 L 45.714844 67.59375 C 44.972656 67.59375 44.375 67.011719 44.367188 66.273438 L 44.367188 60.785156 C 44.367188 60.046875 44.960938 59.460938 45.699219 59.453125 L 48.339844 59.453125 L 48.339844 56.773438 L 46 56.773438 C 45.046875 56.714844 44.28125 55.953125 44.21875 55 C 44.074219 54.019531 43.960938 53.171875 43.773438 52.378906 C 43.394531 52.492188 43.011719 52.605469 42.632812 52.738281 C 36.878906 54.746094 32.386719 59.285156 32.386719 66.394531 C 32.386719 67.480469 31.5 68.359375 30.414062 68.359375 C 29.328125 68.359375 28.445312 67.480469 28.445312 66.394531 C 28.445312 57.339844 34.121094 51.554688 41.386719 49.027344 C 41.640625 48.933594 41.894531 48.851562 42.152344 48.773438 C 42.039062 48.625 41.941406 48.488281 41.820312 48.347656 C 41.535156 47.988281 41.21875 47.640625 40.894531 47.3125 L 28.226562 47.3125 L 28.226562 49.058594 C 28.226562 49.78125 27.640625 50.359375 26.925781 50.359375 L 25.125 50.359375 C 24.40625 50.359375 23.828125 49.773438 23.828125 49.058594 L 23.828125 40.265625 C 23.828125 39.605469 24.320312 39.058594 24.980469 38.980469 L 24.980469 37.101562 L 18.019531 37.101562 C 17.234375 37.101562 16.59375 36.460938 16.59375 35.671875 C 16.59375 34.886719 17.238281 34.261719 18.019531 34.261719 L 18.019531 34.226562 Z M 18.007812 34.21875 "/>
<path style=" stroke:none;fill-rule:nonzero;fill:rgb(100%,100%,100%);fill-opacity:1;" d="M 98.667969 50 C 98.667969 76.878906 76.878906 98.667969 50 98.667969 C 23.121094 98.667969 1.332031 76.878906 1.332031 50 C 1.332031 23.121094 23.121094 1.332031 50 1.332031 C 76.878906 1.332031 98.667969 23.121094 98.667969 50 Z M 98.667969 50 "/>
<path style=" stroke:none;fill-rule:nonzero;fill:rgb(0%,0%,0%);fill-opacity:1;" d="M 50 2.667969 C 76.101562 2.667969 97.332031 23.898438 97.332031 50 C 97.332031 76.101562 76.101562 97.332031 50 97.332031 C 23.898438 97.332031 2.667969 76.101562 2.667969 50 C 2.667969 23.898438 23.898438 2.667969 50 2.667969 M 50 0 C 22.386719 0 0 22.386719 0 50 C 0 77.613281 22.386719 100 50 100 C 77.613281 100 100 77.613281 100 50 C 100 22.386719 77.613281 0 50 0 Z M 50 0 "/>
<path style=" stroke:none;fill-rule:evenodd;fill:rgb(0%,40%,100%);fill-opacity:1;" d="M 18.007812 34.21875 L 24.941406 34.21875 L 24.941406 33.132812 C 24.921875 32.554688 25.375 32.066406 25.953125 32.046875 L 25.992188 32.046875 C 26.574219 32.046875 27.039062 32.519531 27.046875 33.101562 L 27.046875 34.226562 L 34 34.226562 C 34.773438 34.238281 35.394531 34.875 35.398438 35.640625 C 35.398438 36.414062 34.773438 37.054688 34 37.066406 L 27.046875 37.066406 L 27.046875 38.945312 C 27.691406 39.027344 28.191406 39.578125 28.199219 40.234375 L 28.199219 43.21875 L 39.847656 43.21875 L 39.847656 40.585938 C 39.847656 39.867188 40.433594 39.292969 41.152344 39.292969 L 58.921875 39.292969 C 59.640625 39.292969 60.21875 39.875 60.21875 40.585938 L 60.21875 43.21875 L 71.867188 43.21875 L 71.867188 40.234375 C 71.867188 39.574219 72.359375 39.019531 73.019531 38.945312 L 73.019531 37.066406 L 66.085938 37.066406 C 65.300781 37.066406 64.667969 36.425781 64.660156 35.640625 C 64.660156 34.851562 65.308594 34.226562 66.085938 34.226562 L 73.019531 34.226562 L 73.019531 33.140625 C 73 32.554688 73.460938 32.066406 74.039062 32.058594 L 74.066406 32.058594 C 74.648438 32.058594 75.121094 32.527344 75.121094 33.113281 L 75.121094 34.238281 L 82.054688 34.238281 C 82.839844 34.238281 83.472656 34.878906 83.480469 35.667969 C 83.480469 36.453125 82.839844 37.085938 82.054688 37.09375 L 75.121094 37.09375 L 75.121094 38.972656 C 75.773438 39.054688 76.265625 39.605469 76.273438 40.261719 L 76.273438 49.074219 C 76.273438 49.792969 75.691406 50.375 74.972656 50.375 L 73.171875 50.375 C 72.453125 50.375 71.878906 49.785156 71.875 49.074219 L 71.875 47.292969 L 59.246094 47.292969 C 59.019531 47.519531 58.820312 47.746094 58.625 47.972656 C 58.433594 48.191406 58.199219 48.519531 58.019531 48.761719 C 58.253906 48.832031 58.480469 48.90625 58.707031 48.988281 C 65.964844 51.507812 71.648438 57.292969 71.648438 66.351562 C 71.648438 67.441406 70.761719 68.320312 69.671875 68.320312 C 68.585938 68.320312 67.707031 67.441406 67.707031 66.351562 C 67.707031 59.265625 63.199219 54.726562 57.421875 52.738281 C 57.113281 52.625 56.792969 52.535156 56.480469 52.441406 C 56.308594 53.234375 56.1875 54.066406 56.054688 55.011719 C 56 55.964844 55.238281 56.734375 54.285156 56.78125 L 51.734375 56.78125 L 51.734375 59.464844 L 54.375 59.464844 C 55.113281 59.464844 55.707031 60.066406 55.707031 60.800781 L 55.707031 66.261719 C 55.707031 66.992188 55.113281 67.585938 54.375 67.59375 L 45.714844 67.59375 C 44.972656 67.59375 44.375 67.011719 44.367188 66.273438 L 44.367188 60.785156 C 44.367188 60.046875 44.960938 59.460938 45.699219 59.453125 L 48.339844 59.453125 L 48.339844 56.773438 L 46 56.773438 C 45.046875 56.714844 44.28125 55.953125 44.21875 55 C 44.074219 54.019531 43.960938 53.171875 43.773438 52.378906 C 43.394531 52.492188 43.011719 52.605469 42.632812 52.738281 C 36.878906 54.746094 32.386719 59.285156 32.386719 66.394531 C 32.386719 67.480469 31.5 68.359375 30.414062 68.359375 C 29.328125 68.359375 28.445312 67.480469 28.445312 66.394531 C 28.445312 57.339844 34.121094 51.554688 41.386719 49.027344 C 41.640625 48.933594 41.894531 48.851562 42.152344 48.773438 C 42.039062 48.625 41.941406 48.488281 41.820312 48.347656 C 41.535156 47.988281 41.21875 47.640625 40.894531 47.3125 L 28.226562 47.3125 L 28.226562 49.058594 C 28.226562 49.78125 27.640625 50.359375 26.925781 50.359375 L 25.125 50.359375 C 24.40625 50.359375 23.828125 49.773438 23.828125 49.058594 L 23.828125 40.265625 C 23.828125 39.605469 24.320312 39.058594 24.980469 38.980469 L 24.980469 37.101562 L 18.019531 37.101562 C 17.234375 37.101562 16.59375 36.460938 16.59375 35.671875 C 16.59375 34.886719 17.238281 34.261719 18.019531 34.261719 L 18.019531 34.226562 Z M 18.007812 34.21875 "/>
</g>
</svg>
