<?xml version="1.0" encoding="UTF-8"?>
<svg xmlns="http://www.w3.org/2000/svg" xmlns:xlink="http://www.w3.org/1999/xlink" width="100px" height="100px" viewBox="0 0 100 100" version="1.1">
<g id="surface1">
<path style=" stroke:none;fill-rule:nonzero;fill:rgb(100%,100%,100%);fill-opacity:1;" d="M 98.667969 50 C 98.667969 76.878906 76.878906 98.667969 50 98.667969 C 23.121094 98.667969 1.332031 76.878906 1.332031 50 C 1.332031 23.121094 23.121094 1.332031 50 1.332031 C 76.878906 1.332031 98.667969 23.121094 98.667969 50 Z M 98.667969 50 "/>
<path style=" stroke:none;fill-rule:nonzero;fill:rgb(0%,0%,0%);fill-opacity:1;" d="M 50 2.667969 C 76.101562 2.667969 97.332031 23.898438 97.332031 50 C 97.332031 76.101562 76.101562 97.332031 50 97.332031 C 23.898438 97.332031 2.667969 76.101562 2.667969 50 C 2.667969 23.898438 23.898438 2.667969 50 2.667969 M 50 0 C 22.386719 0 0 22.386719 0 50 C 0 77.613281 22.386719 100 50 100 C 77.613281 100 100 77.613281 100 50 C 100 22.386719 77.613281 0 50 0 Z M 50 0 "/>
<path style="fill-rule:nonzero;fill:rgb(0%,40%,100%);fill-opacity:1;stroke-width:1;stroke-linecap:butt;stroke-linejoin:miter;stroke:rgb(0%,40%,100%);stroke-opacity:1;stroke-miterlimit:4;" d="M 75.181641 48.357422 L 75.199219 48.357422 C 75.199219 48.357422 75.222656 48.357422 75.222656 48.357422 C 82.617188 48.128906 89.818359 50.841797 95.220703 55.898438 C 100.617188 60.960938 103.787109 67.951172 104.039062 75.339844 C 103.787109 82.728516 100.617188 89.71875 95.220703 94.78125 C 89.818359 99.837891 82.617188 102.5625 75.222656 102.322266 L 75.199219 102.322266 C 75.199219 102.322266 75.181641 102.322266 75.181641 102.322266 C 67.78125 102.550781 60.580078 99.837891 55.177734 94.78125 C 49.78125 89.71875 46.611328 82.728516 46.359375 75.339844 C 46.611328 67.951172 49.78125 60.960938 55.177734 55.898438 C 60.580078 50.841797 67.78125 48.117188 75.181641 48.357422 Z M 49.951172 75.328125 L 49.951172 75.351562 C 49.951172 75.351562 49.951172 75.369141 49.951172 75.369141 C 50.208984 81.808594 53.021484 87.890625 57.75 92.279297 C 62.478516 96.662109 68.748047 98.988281 75.199219 98.759766 C 81.638672 98.988281 87.908203 96.662109 92.648438 92.279297 C 97.388672 87.902344 100.189453 81.820312 100.447266 75.369141 L 100.447266 75.351562 C 100.447266 75.351562 100.447266 75.328125 100.447266 75.328125 C 100.189453 68.888672 97.382812 62.8125 92.648438 58.417969 C 87.919922 54.041016 81.650391 51.708984 75.199219 51.9375 C 68.759766 51.708984 62.490234 54.041016 57.75 58.417969 C 53.009766 62.800781 50.208984 68.882812 49.951172 75.328125 Z M 49.951172 75.328125 " transform="matrix(0.666667,0,0,0.666667,0,0)"/>
<path style="fill-rule:nonzero;fill:rgb(0%,40%,100%);fill-opacity:1;stroke-width:1;stroke-linecap:butt;stroke-linejoin:miter;stroke:rgb(0%,40%,100%);stroke-opacity:1;stroke-miterlimit:4;" d="M 82.599609 62.53125 C 82.599609 62.53125 82.611328 62.53125 82.611328 62.53125 C 82.822266 62.642578 82.998047 62.789062 83.138672 62.982422 C 83.279297 63.158203 83.390625 63.380859 83.449219 63.597656 C 83.507812 63.832031 83.53125 64.060547 83.490234 64.289062 C 83.460938 64.517578 83.378906 64.740234 83.261719 64.951172 C 83.261719 64.951172 70.171875 87.597656 70.171875 87.597656 C 70.007812 87.867188 69.779297 88.089844 69.509766 88.248047 C 69.240234 88.412109 68.929688 88.488281 68.619141 88.488281 L 68.601562 88.488281 C 68.302734 88.5 67.998047 88.429688 67.751953 88.271484 C 67.552734 88.148438 67.371094 88.001953 67.21875 87.808594 C 67.078125 87.632812 66.972656 87.410156 66.908203 87.1875 C 66.849609 86.958984 66.832031 86.730469 66.861328 86.501953 C 66.890625 86.267578 66.972656 86.039062 67.078125 85.839844 C 67.078125 85.839844 80.167969 63.1875 80.167969 63.1875 C 80.291016 62.982422 80.4375 62.800781 80.630859 62.660156 C 80.818359 62.519531 81.029297 62.408203 81.251953 62.349609 C 81.480469 62.291016 81.708984 62.267578 81.9375 62.302734 C 82.171875 62.332031 82.400391 62.408203 82.599609 62.519531 Z M 72.298828 69.632812 L 72.298828 69.650391 C 72.298828 69.650391 72.298828 69.667969 72.298828 69.667969 C 72.380859 71.630859 71.689453 73.552734 70.359375 74.988281 C 69.041016 76.429688 67.201172 77.291016 65.25 77.390625 C 63.287109 77.302734 61.447266 76.429688 60.117188 74.988281 C 58.787109 73.541016 58.078125 71.630859 58.160156 69.662109 L 58.160156 69.638672 C 58.160156 69.638672 58.160156 69.621094 58.160156 69.621094 C 58.089844 67.658203 58.798828 65.748047 60.140625 64.3125 C 61.470703 62.882812 63.298828 62.021484 65.25 61.921875 C 67.201172 62.009766 69.029297 62.871094 70.347656 64.3125 C 71.677734 65.748047 72.380859 67.658203 72.298828 69.609375 Z M 65.191406 73.810547 L 65.25 73.810547 C 65.25 73.810547 65.308594 73.810547 65.308594 73.810547 C 66.322266 73.6875 67.242188 73.189453 67.869141 72.398438 C 68.501953 71.630859 68.800781 70.640625 68.71875 69.650391 C 68.8125 68.648438 68.507812 67.658203 67.880859 66.890625 C 67.242188 66.099609 66.310547 65.601562 65.302734 65.490234 L 65.25 65.490234 C 65.25 65.490234 65.197266 65.490234 65.197266 65.490234 C 64.189453 65.601562 63.257812 66.099609 62.607422 66.890625 C 61.96875 67.669922 61.658203 68.660156 61.740234 69.662109 C 61.669922 70.658203 61.980469 71.642578 62.619141 72.410156 C 63.257812 73.189453 64.189453 73.699219 65.191406 73.810547 Z M 78.070312 81.140625 L 78.070312 81.117188 C 78.070312 81.117188 78.070312 81.099609 78.070312 81.099609 C 78 79.142578 78.697266 77.238281 80.021484 75.802734 C 81.339844 74.367188 83.167969 73.511719 85.119141 73.412109 C 87.070312 73.5 88.910156 74.361328 90.228516 75.802734 C 91.558594 77.238281 92.267578 79.148438 92.208984 81.111328 L 92.208984 81.128906 C 92.208984 81.128906 92.208984 81.152344 92.208984 81.152344 C 92.279297 83.121094 91.582031 85.03125 90.251953 86.478516 C 88.921875 87.919922 87.082031 88.78125 85.119141 88.880859 C 83.167969 88.787109 81.328125 87.919922 80.009766 86.478516 C 78.679688 85.03125 77.988281 83.121094 78.070312 81.158203 Z M 85.072266 85.277344 L 85.130859 85.277344 C 85.130859 85.277344 85.189453 85.277344 85.189453 85.277344 C 86.197266 85.160156 87.117188 84.662109 87.761719 83.882812 C 88.388672 83.109375 88.710938 82.119141 88.640625 81.128906 C 88.722656 80.132812 88.412109 79.142578 87.767578 78.357422 C 87.117188 77.572266 86.191406 77.068359 85.177734 76.962891 L 85.130859 76.962891 C 85.130859 76.962891 85.078125 76.962891 85.078125 76.962891 C 84.070312 77.080078 83.150391 77.578125 82.517578 78.369141 C 81.890625 79.142578 81.591797 80.132812 81.667969 81.117188 C 81.591797 82.107422 81.890625 83.097656 82.517578 83.871094 C 83.162109 84.662109 84.082031 85.160156 85.078125 85.277344 Z M 85.072266 85.277344 " transform="matrix(0.666667,0,0,0.666667,0,0)"/>
</g>
</svg>
